<svg height="512" viewBox="0 0 512 512" width="512" xmlns="http://www.w3.org/2000/svg"><g id="Flat"><path d="m464 256a207.97874 207.97874 0 1 1 -64.97-151.03 207.467 207.467 0 0 1 64.97 151.03z" fill="#8acce7"/><path d="m224 284.28a86.19188 86.19188 0 0 1 -25.25 60.97l-72.96 72.96a208.05972 208.05972 0 0 1 50.21-354.27006v18.81006a31.99526 31.99526 0 0 0 9.37 22.62 32.0125 32.0125 0 0 1 0 45.26l-6.06 6.05994a38.63337 38.63337 0 0 1 -27.31 11.31006 24 24 0 0 0 0 48h3.72a68.287 68.287 0 0 1 68.28 68.28z" fill="#349966"/><path d="m464 256a207.467 207.467 0 0 1 -64.97 151.03l-11.03-11.03a28.27036 28.27036 0 0 1 0-40 28.28427 28.28427 0 1 0 -40-40 28.27639 28.27639 0 0 1 -40 0l-24-24a16.972 16.972 0 0 1 0-24 16.972 16.972 0 0 0 0-24 16.96589 16.96589 0 0 1 0-24l115.03-115.03a207.467 207.467 0 0 1 64.97 151.03z" fill="#349966"/><path d="m184 488h-128a32 32 0 0 1 -32-32v-120a32 32 0 0 1 32-32h56l56-56v56h16a32 32 0 0 1 32 32v120a32 32 0 0 1 -32 32z" fill="#eebe33"/><rect fill="#8acce7" height="88" rx="16" width="128" x="56" y="336"/><path d="m136 440a16 16 0 0 0 16 16h-64a16 16 0 0 0 16-16v-16h32z" fill="#8acce7"/><path d="m56 400h128v8a16 16 0 0 1 -16 16h-96a16 16 0 0 1 -16-16z" fill="#379ec3"/><path d="m312 24h128a32 32 0 0 1 32 32v120a32 32 0 0 1 -32 32h-56l-56 56v-56h-16a32 32 0 0 1 -32-32v-120a32 32 0 0 1 32-32z" fill="#eebe33"/><rect fill="#8acce7" height="88" rx="16" width="128" x="312" y="56"/><path d="m392 160a16 16 0 0 0 16 16h-64a16 16 0 0 0 16-16v-16h32z" fill="#8acce7"/><path d="m312 120h128v8a16 16 0 0 1 -16 16h-96a16 16 0 0 1 -16-16z" fill="#379ec3"/></g></svg>